<?xml version="1.0" standalone="no"?>
<!DOCTYPE svg PUBLIC "-//W3C//DTD SVG 20010904//EN"
 "http://www.w3.org/TR/2001/REC-SVG-20010904/DTD/svg10.dtd">
<svg version="1.0" xmlns="http://www.w3.org/2000/svg"
 width="512.000000pt" height="512.000000pt" viewBox="0 0 512.000000 512.000000"
 preserveAspectRatio="xMidYMid meet">
<metadata>
Created by potrace 1.14, written by Peter Selinger 2001-2017
</metadata>
<g transform="translate(0.000000,512.000000) scale(0.100000,-0.100000)"
fill="#000000" stroke="none">
<path d="M3925 5106 c-258 -52 -464 -207 -581 -440 -24 -48 -44 -94 -44 -102
0 -20 -9 -18 -92 20 -561 256 -1218 190 -1733 -173 -109 -76 -326 -295 -405
-408 -225 -322 -329 -668 -317 -1058 6 -193 28 -324 82 -488 96 -289 214 -475
470 -737 161 -165 208 -227 272 -355 49 -98 79 -186 103 -307 14 -68 25 -98
41 -110 19 -16 52 -18 355 -18 l334 0 0 -90 c0 -104 15 -146 57 -156 36 -9 75
6 90 36 7 15 13 63 13 118 l0 92 286 0 285 0 -3 -208 c-3 -225 -8 -245 -64
-270 -18 -9 -183 -12 -585 -12 -622 0 -607 -2 -635 65 -8 19 -14 66 -14 105 0
62 -3 74 -25 95 -13 14 -31 25 -40 25 -24 0 -72 -27 -79 -45 -12 -32 -6 -172
10 -217 31 -93 140 -178 226 -178 25 0 38 -5 38 -13 0 -32 64 -138 106 -177
25 -23 71 -54 102 -68 l57 -27 255 0 255 0 57 27 c31 14 77 45 102 68 42 39
106 145 106 177 0 8 13 13 38 13 52 0 131 40 171 85 64 73 65 81 72 405 5 284
7 298 33 385 66 217 151 349 365 570 156 160 285 325 297 379 9 39 -22 80 -65
84 -41 4 -47 -1 -128 -116 -37 -53 -138 -168 -223 -257 -85 -88 -171 -182
-191 -210 -97 -135 -171 -292 -210 -449 l-21 -86 -658 0 -658 0 -17 73 c-60
248 -177 449 -368 636 -297 291 -439 538 -519 903 -19 88 -22 132 -22 308 0
173 4 221 22 305 32 150 66 246 136 390 130 265 317 476 569 639 456 297 1038
335 1535 101 l92 -44 0 -99 c0 -292 174 -573 439 -711 84 -43 179 -75 257 -86
l51 -7 26 -106 c68 -277 61 -575 -20 -845 -30 -100 -26 -131 19 -156 38 -22
78 -6 100 39 10 19 28 78 42 130 71 270 75 582 12 846 -13 51 -21 96 -18 99 3
3 18 5 34 5 15 0 69 13 120 30 208 66 379 214 480 413 61 122 81 209 81 357 1
155 -16 227 -86 370 -45 94 -61 116 -151 206 -83 82 -117 108 -191 146 -50 26
-124 56 -165 68 -97 27 -269 35 -365 16z m356 -173 c297 -98 493 -409 449
-712 -32 -225 -166 -413 -363 -510 -367 -180 -800 4 -929 394 -20 60 -23 90
-22 205 0 125 2 141 31 215 67 179 178 300 349 382 146 69 325 79 485 26z
m-1431 -4658 c0 -26 -82 -100 -126 -113 -56 -16 -412 -16 -468 0 -44 13 -126
87 -126 113 0 13 44 15 360 15 316 0 360 -2 360 -15z"/>
<path d="M4155 4400 l-230 -229 -79 90 c-81 91 -106 106 -152 95 -32 -8 -56
-60 -43 -94 13 -34 216 -255 247 -268 17 -8 35 -8 52 -2 14 5 142 125 283 266
239 240 257 260 257 293 0 44 -34 79 -75 79 -24 0 -66 -36 -260 -230z"/>
<path d="M1893 4955 c-32 -14 -43 -32 -43 -71 0 -61 90 -88 129 -38 26 33 26
54 1 86 -25 32 -49 39 -87 23z"/>
<path d="M3034 4959 c-25 -9 -54 -46 -54 -70 0 -33 39 -69 76 -69 59 0 92 57
64 110 -13 23 -59 39 -86 29z"/>
<path d="M772 4457 c-37 -39 -29 -74 31 -130 134 -127 167 -143 212 -104 46
39 40 81 -21 135 -143 128 -179 144 -222 99z"/>
<path d="M1695 3756 c-67 -31 -120 -92 -140 -160 -14 -47 -16 -103 -13 -358 3
-291 4 -305 25 -345 13 -23 28 -45 34 -48 7 -5 6 -12 -4 -23 -8 -10 -23 -33
-33 -52 -17 -32 -19 -65 -22 -338 -4 -365 0 -388 81 -467 32 -31 68 -55 93
-63 29 -8 135 -12 353 -12 325 0 355 3 402 46 16 14 21 13 60 -13 l42 -28 321
-3 c376 -4 386 -2 462 72 82 80 86 103 82 468 -3 291 -4 305 -25 345 -13 23
-27 44 -32 48 -6 3 1 21 14 41 14 20 29 53 35 73 5 20 10 160 10 322 0 325 -6
362 -68 431 -20 23 -59 52 -87 64 -49 23 -56 24 -361 24 -320 0 -350 -3 -406
-42 -28 -19 -28 -19 -55 0 -57 39 -87 42 -407 42 -305 0 -312 -1 -361 -24z
m684 -152 c27 -22 31 -32 31 -73 l0 -48 -55 -6 c-118 -12 -200 -96 -199 -206
0 -63 17 -102 65 -149 34 -33 109 -62 161 -62 l28 0 0 -75 0 -75 -126 0 c-69
0 -134 -5 -144 -10 -26 -14 -40 -70 -40 -158 0 -66 -2 -73 -22 -81 -57 -21
-78 12 -78 118 0 73 -3 88 -22 108 -20 21 -30 23 -119 23 -90 0 -100 2 -128
26 l-31 26 0 293 c0 198 4 302 11 319 24 51 50 56 356 56 l281 0 31 -26z m844
15 c56 -29 57 -29 57 -351 0 -163 -3 -304 -6 -313 -9 -24 -58 -45 -104 -45
l-40 0 0 50 c0 88 -43 154 -125 191 -132 61 -284 -43 -285 -193 l0 -48 -75 0
-75 0 0 126 c0 125 0 126 -29 155 -28 27 -34 29 -115 29 -92 0 -116 11 -116
54 0 38 19 46 113 46 85 0 90 1 118 29 28 29 29 32 29 128 0 102 6 120 45 141
28 16 578 16 608 1z m-263 -619 c17 -17 20 -33 20 -105 0 -78 2 -88 25 -110
22 -23 32 -25 115 -25 111 0 144 -14 160 -68 8 -24 10 -129 8 -307 -3 -241 -5
-274 -21 -298 -10 -16 -29 -32 -43 -37 -14 -6 -155 -10 -315 -10 l-290 0 -24
25 c-20 19 -25 34 -25 73 l0 49 57 7 c116 14 184 82 191 190 3 49 0 71 -16
102 -38 74 -104 114 -187 114 l-45 0 0 80 0 80 127 0 c116 0 129 2 150 22 21
19 23 30 23 110 0 75 3 91 20 108 11 11 27 20 35 20 8 0 24 -9 35 -20z m-1108
-304 c3 -50 10 -73 32 -105 34 -49 113 -91 170 -91 112 1 206 99 206 215 l0
45 75 0 75 0 0 -126 c0 -125 0 -126 29 -155 28 -27 34 -29 115 -29 92 0 116
-11 116 -54 0 -36 -18 -44 -117 -48 -130 -4 -136 -12 -143 -159 -7 -160 18
-149 -344 -149 -271 0 -293 1 -323 20 -21 13 -35 31 -42 57 -14 50 -14 526 0
575 12 45 46 67 105 68 l42 0 4 -64z"/>
<path d="M255 3325 c-31 -30 -32 -69 -2 -98 18 -19 45 -26 141 -40 109 -15
122 -16 143 -1 45 29 49 93 9 119 -19 13 -196 45 -246 45 -12 0 -32 -11 -45
-25z"/>
<path d="M4546 3334 c-117 -18 -138 -32 -134 -86 2 -30 10 -46 28 -60 24 -18
29 -18 145 -1 97 14 124 21 142 40 30 29 29 68 -2 98 -28 29 -46 30 -179 9z"/>
<path d="M541 2154 c-113 -53 -131 -68 -131 -106 0 -33 39 -78 69 -78 18 0 74
23 193 79 54 26 75 62 59 104 -11 29 -39 47 -73 47 -13 -1 -66 -21 -117 -46z"/>
<path d="M4277 2189 c-28 -16 -40 -58 -27 -90 9 -21 36 -38 120 -78 60 -28
119 -51 130 -51 31 0 70 44 70 78 0 38 -18 53 -133 107 -99 46 -128 52 -160
34z"/>
</g>
</svg>
